<svg xmlns="http://www.w3.org/2000/svg" viewBox="0 0 64 64" width="64" height="64">
  <rect width="64" height="64" rx="14" fill="#0b0e1c"/>
  <g fill="none" stroke="#22d3ee" stroke-width="2.6" stroke-linecap="round" stroke-linejoin="round">
    <path d="M19.5 21 C18.8 16 18.4 12 18.6 9.6 C21.5 12 24 13.7 26.4 15 C28.4 11.6 30.4 9 32 6.8 C33.7 9.2 35.6 11.8 37.8 15 C40.3 13.6 42.9 11.9 45.6 9.6 C45.8 12.3 45.3 16.3 44.6 21"/>
    <path d="M19.5 21 C25 22.2 39 22.2 44.6 21"/>
    <path d="M32 24.5 C41 24.5 47.5 31 47.5 39.5 C47.5 48 41 53.5 32 53.5 C23 53.5 16.5 48 16.5 39.5 C16.5 31 23 24.5 32 24.5 Z"/>
    <path d="M24 36 L28.4 40.4 M28.4 36 L24 40.4"/>
    <path d="M35.6 36 L40 40.4 M40 36 L35.6 40.4"/>
    <path d="M28 46.5 C29.8 48.4 34.2 48.4 36 46.5"/>
  </g>
</svg>
